PathFileType	4	(X/Y/Z)	Run_300 02
DataRate	CameraRate	NumFrames	NumMarkers	Units	OrigDataRate	OrigDataStartFrame	OrigNumFrames
100	100	4	42	mm	100	115	128
Frame#	Time	LASI			RASI			LPSI			RTH1			RTH2			RTH3			LTH1			LTH2			LTH3			RTB1			RTB2			RTB3			LTB1			LTB2			LTB3			RCAL			RTOE			RMT5			LCAL			LTOE			LMT5			LACR			RACR			CLAV			C7			RUA1			RUA2			RUA3			RLEL			RMEL			LUA1			LUA2			LUA3			LLEL			RFAsuperior			RFAradius			RFAulna			LFAsuperior			LFAradius			LFAulna			LMEL			RPSI			
		X1	Y1	Z1	X2	Y2	Z2	X3	Y3	Z3	X4	Y4	Z4	X5	Y5	Z5	X6	Y6	Z6	X7	Y7	Z7	X8	Y8	Z8	X9	Y9	Z9	X10	Y10	Z10	X11	Y11	Z11	X12	Y12	Z12	X13	Y13	Z13	X14	Y14	Z14	X15	Y15	Z15	X16	Y16	Z16	X17	Y17	Z17	X18	Y18	Z18	X19	Y19	Z19	X20	Y20	Z20	X21	Y21	Z21	X22	Y22	Z22	X23	Y23	Z23	X24	Y24	Z24	X25	Y25	Z25	X26	Y26	Z26	X27	Y27	Z27	X28	Y28	Z28	X29	Y29	Z29	X30	Y30	Z30	X31	Y31	Z31	X32	Y32	Z32	X33	Y33	Z33	X34	Y34	Z34	X35	Y35	Z35	X36	Y36	Z36	X37	Y37	Z37	X38	Y38	Z38	X39	Y39	Z39	X40	Y40	Z40	X41	Y41	Z41	X42	Y42	Z42	

113	1.73	1247.771436	1033.716239	-474.544466	1254.923334	1016.215981	-213.652204	1081.185045	1086.615925	-379.761038	1174.402985	834.272201	-177.025183	1164.864146	731.24944	-208.752039	1050.798668	630.9753899999999	-203.777863	1186.211661	885.312086	-527.000712	1282.255315	773.222217	-505.744817	1243.504067	644.1424490000001	-484.016375	898.103793	406.008142	-275.638281	793.19498	376.370627	-221.217795	739.2972109999999	318.501989	-281.741149	1366.410092	390.182792	-400.878844	1338.669121	319.857377	-431.794102	1382.095178	255.231262	-372.646858	612.887647	368.790669	-255.745654	666.1660879999999	147.896696	-321.119732	641.2236339999999	138.875712	-246.066671	1307.723654	91.403941	-326.33149	1537.141483	179.807252	-337.035662	1515.923318	128.454892	-413.498708	1193.11096	1564.722524	-467.372228	1283.294406	1534.05811	-152.837001	1291.159002	1483.532186	-299.324935	1191.390296	1584.976447	-294.742357	1264.354585	1406.79941	-62.738265	1199.809195	1396.316937	-40.520334	1221.882223	1331.173673	-21.204188	1196.99786	1253.320465	6.316175	1126.371336	1247.461109	-61.604933	1075.557288	1525.80184	-518.251218	1011.019253	1508.350383	-453.742432	971.163358	1460.985725	-519.6982870000001	910.727335	1411.425869	-523.649235	1271.615494	1265.522504	-41.220523	1372.247224	1288.562693	-176.227995	1383.800027	1220.770558	-154.65753	972.9761109999999	1351.64493	-544.316828	1138.643106	1277.368611	-523.668174	1098.053605	1219.93524	-530.968533	916.319752	1393.923786	-432.20262	1080.691466	1081.536133	-286.379857	
114	1.74	1248.067929	1031.090933	-474.929136	1255.258322	1012.752339	-214.200455	1080.053032	1081.42351	-379.125617	1177.775946	828.8603000000001	-179.24458	1169.790127	726.045738	-210.40734	1058.398464	622.890059	-205.901768	1185.21544	881.292329	-527.900549	1280.899183	767.0565309999999	-508.020305	1242.644734	639.812654	-482.515649	901.103982	403.532631	-276.460341	795.20813	381.039469	-220.963391	736.808131	327.010905	-280.603341	1363.015517	385.173809	-397.481636	1335.67939	315.016154	-429.337017	1376.84393	249.882667	-369.501825	612.329939	383.996663	-251.551892	656.39251	162.856174	-322.265599	631.413381	152.968117	-247.173675	1299.764407	89.51182799999999	-324.174078	1530.672936	171.869054	-333.234727	1507.877005	121.180774	-409.785035	1193.761238	1558.698175	-469.768429	1283.033557	1528.539982	-153.534683	1290.669807	1478.137324	-300.277611	1191.329078	1580.42471	-296.66979	1260.727679	1401.834958	-62.80587	1195.540763	1392.333945	-41.486577	1216.700243	1326.990664	-21.498569	1190.803513	1249.674562	5.623991	1121.557298	1244.134868	-63.212161	1076.841204	1516.853242	-521.926827	1011.232834	1499.812155	-458.368086	973.6409169999999	1449.459371	-523.149905	913.964893	1399.746668	-527.184127	1267.011859	1257.92249	-39.809664	1372.17857	1274.244141	-173.014332	1380.028851	1206.45929	-150.355257	977.504574	1341.387168	-547.362268	1144.236414	1270.282185	-525.48733	1104.718545	1212.162254	-533.579169	919.174896	1382.742671	-435.478736	1080.242602	1076.143591	-285.607771	
115	1.75	1248.03999	1027.574496	-474.912423	1255.289917	1008.397149	-214.342391	1078.723401	1075.23419	-378.146245	1180.825787	822.889391	-180.362116	1174.846512	720.0053799999999	-210.395253	1065.750003	614.224598	-207.068752	1184.19772	876.119884	-528.110444	1280.821477	762.668904	-509.353372	1243.524109	635.581798	-481.018313	905.962688	400.352438	-276.233699	799.209114	385.352613	-220.139976	737.055887	334.642171	-278.57431	1357.928786	378.10351	-394.313187	1330.129318	308.429576	-426.95281	1367.873033	242.392627	-366.435046	614.949447	398.697844	-248.234558	649.575247	176.879031	-321.678865	623.400434	166.984595	-246.920354	1285.43838	89.62845900000001	-322.295878	1519.272796	156.268056	-328.75504	1493.593658	107.470813	-406.135213	1194.503442	1551.827246	-472.331909	1282.148718	1522.10624	-154.218037	1290.050309	1471.736094	-301.143448	1191.023516	1574.850171	-298.694069	1256.36414	1395.965293	-62.889031	1190.605293	1387.313026	-42.750453	1210.895239	1321.513664	-22.302995	1184.042968	1244.76032	4.206822	1116.214084	1239.604801	-65.558897	1078.496442	1506.634753	-525.993578	1011.544962	1489.726593	-463.8214	976.755989	1436.285318	-527.411117	918.05763	1386.279422	-531.7418269999999	1261.641445	1248.639722	-38.900492	1371.47138	1257.704986	-169.577586	1375.349635	1190.09856	-145.992989	982.912368	1329.45204	-551.099888	1150.620557	1261.690377	-527.47231	1112.25546	1202.836073	-536.562287	922.455168	1369.940856	-439.595738	1079.865375	1069.5871	-284.564747	
116	1.76	1247.680627	1023.094965	-474.298749	1255.009296	1003.083456	-213.885857	1077.173082	1068.284683	-376.949667	1183.310436	816.277371	-180.388868	1179.965756	713.1753189999999	-208.978666	1073.37584	604.819618	-206.961931	1183.200385	869.691826	-527.437014	1281.393866	759.803475	-508.429555	1245.2321	630.9888099999999	-479.908446	912.473092	396.474569	-275.033007	805.039299	389.182496	-218.779973	739.883634	341.411056	-276.197299	1351.694435	369.308982	-391.931769	1321.842485	300.598048	-424.606654	1355.719592	233.443624	-363.445566	620.259676	412.620093	-245.890534	645.9345939999999	189.755516	-319.553964	618.080457	180.800602	-245.27218	1265.653855	91.081959	-320.53108	1502.997581	135.342426	-324.427595	1473.9957	89.819846	-403.227296	1195.295596	1544.031511	-475.05689	1280.530282	1514.888606	-154.863352	1289.346048	1464.38037	-301.914749	1190.464899	1568.309472	-300.785268	1251.387234	1389.182189	-63.018598	1185.122721	1381.223267	-44.276144	1204.601732	1314.765958	-23.560579	1176.806381	1238.517148	2.197764	1110.455147	1234.024303	-68.568263	1080.45778	1495.255108	-530.500061	1011.963007	1478.174288	-469.994569	980.410354	1421.692557	-532.380569	922.885261	1371.153645	-537.134864	1255.530768	1237.868005	-38.523161	1369.877118	1239.052744	-166.026107	1369.733852	1171.905952	-141.394159	989.145086	1315.956479	-555.458496	1157.69977	1251.682652	-529.687539	1120.594849	1192.033123	-539.815742	926.164187	1355.551117	-444.514204	1079.3093	1062.078906	-283.503512	
